<?xml version="1.0" encoding="UTF-8" standalone="no"?>
<!-- Created with Inkscape (http://www.inkscape.org/) -->

<svg
   width="210mm"
   height="297mm"
   viewBox="0 0 210 297"
   version="1.1"
   id="svg922"
   inkscape:version="1.1 (c68e22c387, 2021-05-23)"
   sodipodi:docname="Age.svg"
   xmlns:inkscape="http://www.inkscape.org/namespaces/inkscape"
   xmlns:sodipodi="http://sodipodi.sourceforge.net/DTD/sodipodi-0.dtd"
   xmlns="http://www.w3.org/2000/svg"
   xmlns:svg="http://www.w3.org/2000/svg">
  <sodipodi:namedview
     id="namedview924"
     pagecolor="#ffffff"
     bordercolor="#666666"
     borderopacity="1.0"
     inkscape:pageshadow="2"
     inkscape:pageopacity="0.0"
     inkscape:pagecheckerboard="0"
     inkscape:document-units="mm"
     showgrid="false"
     inkscape:zoom="2.5738379"
     inkscape:cx="247.10181"
     inkscape:cy="94.217279"
     inkscape:window-width="1920"
     inkscape:window-height="1017"
     inkscape:window-x="-8"
     inkscape:window-y="-8"
     inkscape:window-maximized="1"
     inkscape:current-layer="layer1" />
  <defs
     id="defs919" />
  <g
     inkscape:label="Ebene 1"
     inkscape:groupmode="layer"
     id="layer1">
    <path
       id="path1614"
       style="fill:#ff0000;stroke-width:1.94262"
       d="M 8.6098104,0.00217994 C 7.9146717,-0.02734936 7.2028697,0.24261668 6.6621257,0.84295549 5.9876181,1.5917986 5.9624266,1.800617 5.9624266,6.641051 v 4.298446 H 3.7992513 c -1.9264755,0 -2.2043164,0.02163 -2.5440308,0.19637 -0.46528212,0.23933 -0.89654578,0.68168 -1.04334713,1.070219 -0.0758257,0.200688 -0.10994534,5.802406 -0.11162109,18.24023 l -0.0025838,17.95136 0.28577069,0.468188 c 0.2082448,0.341424 0.4374534,0.545602 0.84542633,0.752409 l 0.5596558,0.283702 19.4422237,-0.02687 19.441708,-0.02687 0.49816,-0.307991 c 0.327017,-0.202539 0.579763,-0.464167 0.736905,-0.761712 L 42.14678,48.325328 V 30.398257 c 0,-19.559765 0.04092,-18.174431 -0.551386,-18.826241 -0.525933,-0.578771 -0.797179,-0.632519 -3.191536,-0.632519 H 36.19469 L 36.163683,6.4420968 C 36.137133,2.5542569 36.110677,1.8952846 35.96628,1.5777944 35.05037,-0.43604967 32.283114,-0.52434459 31.363978,1.4310332 31.154298,1.8771141 31.147453,2.0303989 31.147453,6.4152252 V 10.939497 H 21.073649 10.999329 l -0.0021,-4.4974002 C 10.995188,2.3116457 10.979241,1.9115105 10.807092,1.5338694 10.369156,0.57317688 9.5035599,0.04014619 8.6098104,0.00217994 Z M 3.0840494,19.26612 H 21.124809 39.165567 v 13.774869 13.77487 H 21.124809 3.0840494 v -13.77487 z m 2.1585246,2.056205 v 2.569869 2.56987 h 2.415873 2.415873 v -2.56987 -2.569869 H 7.658447 Z m 8.94364,0 v 2.569869 2.56987 h 2.415356 2.415874 v -2.56987 -2.569869 H 16.60157 Z m 8.943123,0 v 2.569869 2.56987 h 2.467033 2.467034 v -2.56987 -2.569869 H 25.59637 Z m 9.045959,0 v 2.569869 2.56987 h 2.415873 2.415874 v -2.56987 -2.569869 H 34.591169 Z M 5.242574,30.471121 v 2.569868 2.569869 H 7.658447 10.07432 V 33.040989 30.471121 H 7.658447 Z m 8.94364,0 v 2.569868 2.569869 h 2.415356 2.415874 V 33.040989 30.471121 H 16.60157 Z m 8.943123,0 v 2.569868 2.569869 h 2.467033 2.467034 V 33.040989 30.471121 H 25.59637 Z m 9.045959,0 v 2.569868 2.569869 h 2.415873 2.415874 V 33.040989 30.471121 H 34.591169 Z M 5.242574,39.619917 v 2.569869 2.570385 H 7.658447 10.07432 V 42.189786 39.619917 H 7.658447 Z m 8.94364,0 v 2.569869 2.570385 h 2.415356 2.415874 V 42.189786 39.619917 H 16.60157 Z m 8.943123,0 v 2.569869 2.570385 h 2.467033 2.467034 V 42.189786 39.619917 H 25.59637 Z m 9.045959,0 v 2.569869 2.570385 h 2.415873 2.415874 v -2.570385 -2.569869 h -2.415874 z" />
  </g>
</svg>
