<svg id="visual" viewBox="0 0 540 960" width="540" height="960" xmlns="http://www.w3.org/2000/svg" xmlns:xlink="http://www.w3.org/1999/xlink" version="1.1"><rect x="0" y="0" width="540" height="960" fill="#070028"></rect><defs><linearGradient id="grad1_0" x1="0%" y1="0%" x2="100%" y2="100%"><stop offset="30%" stop-color="#070028" stop-opacity="1"></stop><stop offset="70%" stop-color="#070028" stop-opacity="1"></stop></linearGradient></defs><defs><linearGradient id="grad2_0" x1="0%" y1="0%" x2="100%" y2="100%"><stop offset="30%" stop-color="#070028" stop-opacity="1"></stop><stop offset="70%" stop-color="#070028" stop-opacity="1"></stop></linearGradient></defs><g transform="translate(540, 0)"><path d="M0 486C-66.2 482.2 -132.4 478.5 -186 449C-239.5 419.6 -280.5 364.4 -314 314C-347.5 263.5 -373.5 217.6 -401 166.1C-428.4 114.5 -457.2 57.3 -486 0L0 0Z" fill="#ff2655"></path></g><g transform="translate(0, 960)"><path d="M0 -486C43.6 -432.2 87.2 -378.5 150.4 -363.1C213.6 -347.7 296.4 -370.6 343.7 -343.7C390.9 -316.7 402.6 -239.7 420.4 -174.1C438.2 -108.5 462.1 -54.3 486 0L0 0Z" fill="#ff2655"></path></g></svg>