<?xml version="1.0" encoding="UTF-8" standalone="no"?>
<!-- Created with Inkscape (http://www.inkscape.org/) -->

<svg
   width="100mm"
   height="100mm"
   viewBox="0 0 100 100"
   version="1.1"
   id="svg5"
   xmlns="http://www.w3.org/2000/svg"
   xmlns:svg="http://www.w3.org/2000/svg">
  <defs
     id="defs2" />
  <path
     id="path109"
     style="fill:#999999;stroke-width:1.6773;stroke-linecap:round;stroke-linejoin:round"
     d="M 31.872472,0 A 31.872533,31.872531 0 0 0 0,31.872473 31.872533,31.872531 0 0 0 31.872472,63.744945 31.872533,31.872531 0 0 0 52.617459,56.066346 c -0.1509,1.179684 0.227613,2.413007 1.137399,3.322793 l 39.440487,39.440486 c 1.560706,1.560705 4.073573,1.560705 5.634281,0 1.560704,-1.56071 1.560704,-4.07357 0,-5.63428 L 59.389139,53.754858 C 58.479353,52.845073 57.24603,52.46656 56.066345,52.617459 A 31.872533,31.872531 0 0 0 63.744945,31.872473 31.872533,31.872531 0 0 0 31.872472,0 Z m 0,7.9679888 A 23.9044,23.9044 0 0 1 55.776439,31.872473 23.9044,23.9044 0 0 1 31.872472,55.776439 23.9044,23.9044 0 0 1 7.967989,31.872473 23.9044,23.9044 0 0 1 31.872472,7.9679888 Z" />
</svg>
