<?xml version="1.0" encoding="UTF-8" standalone="no"?>
<!-- Created with Inkscape (http://www.inkscape.org/) -->

<svg
   width="100mm"
   height="100mm"
   viewBox="0 0 100 100"
   version="1.1"
   id="svg5"
   inkscape:version="1.1 (c68e22c387, 2021-05-23)"
   sodipodi:docname="home.svg"
   xmlns:inkscape="http://www.inkscape.org/namespaces/inkscape"
   xmlns:sodipodi="http://sodipodi.sourceforge.net/DTD/sodipodi-0.dtd"
   xmlns="http://www.w3.org/2000/svg"
   xmlns:svg="http://www.w3.org/2000/svg">
  <sodipodi:namedview
     id="namedview7"
     pagecolor="#000000"
     bordercolor="#666666"
     borderopacity="1.0"
     inkscape:pageshadow="2"
     inkscape:pageopacity="0"
     inkscape:pagecheckerboard="0"
     inkscape:document-units="mm"
     showgrid="false"
     showguides="false"
     inkscape:zoom="1.4142136"
     inkscape:cx="204.35385"
     inkscape:cy="157.33125"
     inkscape:window-width="1920"
     inkscape:window-height="1017"
     inkscape:window-x="-8"
     inkscape:window-y="-8"
     inkscape:window-maximized="1"
     inkscape:current-layer="layer1"
     width="100mm" />
  <defs
     id="defs2" />
  <g
     inkscape:label="Ebene 1"
     inkscape:groupmode="layer"
     id="layer1">
    <path
       id="rect5153"
       style="fill:#ffffff;stroke-width:5.34031;stroke-linecap:round;stroke-linejoin:round"
       d="m 75,70 h 20 c 2.77,0 5,2.23 5,5 v 20 c 0,2.77 -2.23,5 -5,5 H 75 c -2.77,0 -5,-2.23 -5,-5 V 75 c 0,-2.77 2.23,-5 5,-5 z m -35,0 h 20 c 2.77,0 5,2.23 5,5 v 20 c 0,2.77 -2.23,5 -5,5 H 40 c -2.77,0 -5,-2.23 -5,-5 V 75 c 0,-2.77 2.23,-5 5,-5 z M 5,70 h 20 c 2.77,0 5,2.23 5,5 v 20 c 0,2.77 -2.23,5 -5,5 H 5 C 2.23,100 0,97.77 0,95 V 75 C 0,72.23 2.23,70 5,70 Z M 75,35 h 20 c 2.77,0 5,2.23 5,5 v 20 c 0,2.77 -2.23,5 -5,5 H 75 c -2.77,0 -5,-2.23 -5,-5 V 40 c 0,-2.77 2.23,-5 5,-5 z m -35,0 h 20 c 2.77,0 5,2.23 5,5 v 20 c 0,2.77 -2.23,5 -5,5 H 40 c -2.77,0 -5,-2.23 -5,-5 V 40 c 0,-2.77 2.23,-5 5,-5 z M 5,35 h 20 c 2.77,0 5,2.23 5,5 v 20 c 0,2.77 -2.23,5 -5,5 H 5 C 2.23,65 0,62.77 0,60 V 40 C 0,37.23 2.23,35 5,35 Z M 75,0 h 20 c 2.77,0 5,2.23 5,5 v 20 c 0,2.77 -2.23,5 -5,5 H 75 c -2.77,0 -5,-2.23 -5,-5 V 5 C 70,2.23 72.23,0 75,0 Z M 40,0 h 20 c 2.77,0 5,2.23 5,5 v 20 c 0,2.77 -2.23,5 -5,5 H 40 c -2.77,0 -5,-2.23 -5,-5 V 5 C 35,2.23 37.23,0 40,0 Z M 5,0 h 20 c 2.77,0 5,2.23 5,5 v 20 c 0,2.77 -2.23,5 -5,5 H 5 C 2.23,30 0,27.77 0,25 V 5 C 0,2.23 2.23,0 5,0 Z" />
  </g>
</svg>
