<?xml version="1.0" encoding="UTF-8" standalone="no"?>
<!-- Created with Inkscape (http://www.inkscape.org/) -->

<svg
   width="21cm"
   height="7cm"
   viewBox="0 0 210 70"
   version="1.1"
   id="svg5"
   inkscape:version="1.2 (dc2aedaf03, 2022-05-15)"
   sodipodi:docname="ligma.svg"
   xmlns:inkscape="http://www.inkscape.org/namespaces/inkscape"
   xmlns:sodipodi="http://sodipodi.sourceforge.net/DTD/sodipodi-0.dtd"
   xmlns:xlink="http://www.w3.org/1999/xlink"
   xmlns="http://www.w3.org/2000/svg"
   xmlns:svg="http://www.w3.org/2000/svg">
  <sodipodi:namedview
     id="namedview7"
     pagecolor="#505050"
     bordercolor="#eeeeee"
     borderopacity="1"
     inkscape:showpageshadow="0"
     inkscape:pageopacity="0"
     inkscape:pagecheckerboard="0"
     inkscape:deskcolor="#505050"
     inkscape:document-units="mm"
     showgrid="false"
     inkscape:zoom="1.5233586"
     inkscape:cx="459.18276"
     inkscape:cy="120.78574"
     inkscape:window-width="1920"
     inkscape:window-height="1009"
     inkscape:window-x="-8"
     inkscape:window-y="-8"
     inkscape:window-maximized="1"
     inkscape:current-layer="layer1" />
  <defs
     id="defs2">
    <inkscape:path-effect
       effect="fillet_chamfer"
       id="path-effect4069"
       is_visible="true"
       lpeversion="1"
       nodesatellites_param="F,0,0,1,0,0,0,1 @ F,0,0,1,0,0,0,1 @ F,0,0,1,0,0,0,1 @ F,0,0,1,0,0,0,1 @ F,0,0,1,0,0,0,1 @ F,0,0,1,0,0,0,1 @ F,0,0,1,0,0,0,1 @ F,0,0,1,0,0,0,1 @ F,0,0,1,0,0,0,1 @ F,0,0,1,0,0,0,1 @ F,0,0,1,0,0,0,1 @ F,0,0,1,0,0,0,1 @ F,0,0,1,0,0,0,1 @ F,0,0,1,0,0,0,1 @ F,0,0,1,0,0,0,1 @ F,0,0,1,0,0,0,1 @ F,0,0,1,0,0,0,1 @ F,0,0,1,0,0,0,1 @ F,0,0,1,0,0,0,1 @ F,0,0,1,0,0,0,1 @ F,0,0,1,0,0,0,1 @ F,0,0,1,0,0,0,1"
       unit="px"
       method="arc"
       mode="F"
       radius="0"
       chamfer_steps="1"
       flexible="false"
       use_knot_distance="true"
       apply_no_radius="true"
       apply_with_radius="true"
       only_selected="false"
       hide_knots="false" />
    <inkscape:path-effect
       effect="fillet_chamfer"
       id="path-effect4035"
       is_visible="true"
       lpeversion="1"
       nodesatellites_param="F,0,0,1,0,0,0,1 @ F,0,0,1,0,0,0,1 @ F,0,0,1,0,0,0,1 @ F,0,0,1,0,0,0,1 @ F,0,0,1,0,0,0,1 @ F,0,0,1,0,0,0,1 @ F,0,0,1,0,0,0,1 @ F,0,0,1,0,0,0,1 @ F,0,0,1,0,0,0,1 @ F,0,0,1,0,0,0,1 @ F,0,0,1,0,0,0,1 @ F,0,0,1,0,0,0,1 @ F,0,0,1,0,0,0,1 @ F,0,0,1,0,0,0,1 @ F,0,0,1,0,0,0,1 | F,0,0,1,0,4.306714,0,1 @ F,0,0,1,0,0,0,1 @ F,0,0,1,0,0,0,1 @ F,0,0,1,0,0,0,1"
       unit="px"
       method="auto"
       mode="F"
       radius="0"
       chamfer_steps="1"
       flexible="false"
       use_knot_distance="true"
       apply_no_radius="true"
       apply_with_radius="true"
       only_selected="false"
       hide_knots="false" />
    <inkscape:path-effect
       effect="spiro"
       id="path-effect3304"
       is_visible="true"
       lpeversion="1" />
    <inkscape:path-effect
       effect="spiro"
       id="path-effect3300"
       is_visible="true"
       lpeversion="1" />
    <inkscape:path-effect
       effect="spiro"
       id="path-effect3296"
       is_visible="true"
       lpeversion="1" />
    <inkscape:path-effect
       effect="spiro"
       id="path-effect3290"
       is_visible="true"
       lpeversion="1" />
    <inkscape:path-effect
       effect="spiro"
       id="path-effect3286"
       is_visible="true"
       lpeversion="1" />
    <inkscape:path-effect
       effect="spiro"
       id="path-effect3221"
       is_visible="true"
       lpeversion="1" />
    <inkscape:path-effect
       effect="spiro"
       id="path-effect3217"
       is_visible="true"
       lpeversion="1" />
    <inkscape:path-effect
       effect="fillet_chamfer"
       id="path-effect2970"
       is_visible="true"
       lpeversion="1"
       nodesatellites_param="F,0,0,1,0,0,0,1 @ F,0,0,1,0,0,0,1 @ F,0,0,1,0,0,0,1 @ F,0,0,1,0,0,0,1 @ F,0,0,1,0,0,0,1 @ F,0,0,1,0,0,0,1 @ F,0,0,1,0,0,0,1 @ F,0,0,1,0,0,0,1 @ F,0,0,1,0,0,0,1 @ F,0,0,1,0,0,0,1"
       unit="px"
       method="auto"
       mode="F"
       radius="5"
       chamfer_steps="1"
       flexible="true"
       use_knot_distance="true"
       apply_no_radius="true"
       apply_with_radius="true"
       only_selected="false"
       hide_knots="false" />
    <inkscape:path-effect
       effect="fillet_chamfer"
       id="path-effect2968"
       is_visible="true"
       lpeversion="1"
       nodesatellites_param="F,0,0,1,0,0,0,1 @ F,0,0,1,0,0,0,1 @ F,0,0,1,0,0,0,1 @ F,0,0,1,0,0,0,1 @ F,0,0,1,0,0,0,1 @ F,0,0,1,0,0,0,1 @ F,0,0,1,0,0,0,1 @ F,0,0,1,0,0,0,1 @ F,0,0,1,0,0,0,1 @ F,0,0,1,0,0,0,1 @ F,0,0,1,0,0,0,1 @ F,0,0,1,0,0,0,1 @ F,0,0,1,0,0,0,1 @ F,0,0,1,0,0,0,1 @ F,0,0,1,0,0,0,1 @ F,0,0,1,0,0,0,1 @ F,0,0,1,0,0,0,1 @ F,0,0,1,0,0,0,1 @ F,0,0,1,0,0,0,1 @ F,0,0,1,0,0,0,1 @ F,0,0,1,0,0,0,1 @ F,0,0,1,0,0,0,1"
       unit="px"
       method="arc"
       mode="F"
       radius="0"
       chamfer_steps="1"
       flexible="false"
       use_knot_distance="true"
       apply_no_radius="true"
       apply_with_radius="true"
       only_selected="false"
       hide_knots="false" />
    <linearGradient
       inkscape:collect="always"
       id="linearGradient2768">
      <stop
         style="stop-color:#55d400;stop-opacity:1"
         offset="0"
         id="stop2764" />
      <stop
         style="stop-color:#44aa00;stop-opacity:1"
         offset="1"
         id="stop2766" />
    </linearGradient>
    <inkscape:path-effect
       effect="fillet_chamfer"
       id="path-effect579"
       is_visible="true"
       lpeversion="1"
       nodesatellites_param="F,0,0,1,0,0,0,1 @ F,0,0,1,0,0,0,1 @ F,0,0,1,0,0,0,1 @ F,0,0,1,0,0,0,1 @ F,0,0,1,0,0,0,1 @ F,0,0,1,0,0,0,1 @ F,0,0,1,0,0,0,1 @ F,0,0,1,0,0,0,1 @ F,0,0,1,0,0,0,1 @ F,0,0,1,0,0,0,1 @ F,0,0,1,0,0,0,1 @ F,0,0,1,0,0,0,1 @ F,0,0,1,0,0,0,1 @ F,0,0,1,0,0,0,1 @ F,0,0,1,0,0,0,1 @ F,0,0,1,0,0,0,1 @ F,0,0,1,0,0,0,1 @ F,0,0,1,0,0,0,1 @ F,0,0,1,0,0,0,1 @ F,0,0,1,0,0,0,1 @ F,0,0,1,0,0,0,1 @ F,0,0,1,0,0,0,1 @ F,0,0,1,0,0,0,1 @ F,0,0,1,0,0,0,1 @ F,0,0,1,0,0,0,1 @ F,0,0,1,0,0,0,1 @ F,0,0,1,0,0,0,1 @ F,0,0,1,0,0,0,1 @ F,0,0,1,0,0,0,1 @ F,0,0,1,0,0,0,1"
       unit="px"
       method="auto"
       mode="F"
       radius="0"
       chamfer_steps="1"
       flexible="true"
       use_knot_distance="true"
       apply_no_radius="true"
       apply_with_radius="true"
       only_selected="false"
       hide_knots="false" />
    <linearGradient
       inkscape:collect="always"
       xlink:href="#linearGradient2768"
       id="linearGradient2770"
       x1="11.466223"
       y1="8.8578949"
       x2="170.67686"
       y2="60.403225"
       gradientUnits="userSpaceOnUse"
       gradientTransform="translate(18.772337,-0.136429)" />
    <filter
       inkscape:label="In and Out"
       inkscape:menu="Shadows and Glows"
       inkscape:menu-tooltip="Inner colorized shadow, outer black shadow"
       style="color-interpolation-filters:sRGB;"
       id="filter2820"
       x="-0.075736714"
       y="-0.20630257"
       width="1.1909196"
       height="1.5200544">
      <feGaussianBlur
         result="result0"
         in="SourceAlpha"
         stdDeviation="4"
         id="feGaussianBlur2814" />
      <feOffset
         dx="5"
         dy="5"
         result="result4"
         id="feOffset2816" />
      <feComposite
         in="SourceGraphic"
         in2="result4"
         operator="xor"
         result="result3"
         id="feComposite2818" />
    </filter>
  </defs>
  <g
     inkscape:label="Ebene 1"
     inkscape:groupmode="layer"
     id="layer1">
    <rect
       style="opacity:1;fill:#000000;fill-opacity:1;stroke:#000000;stroke-width:2;stroke-linecap:round;stroke-linejoin:round;stroke-dasharray:none;stroke-dashoffset:0;stroke-opacity:1;paint-order:stroke fill markers"
       id="rect2874"
       width="210"
       height="70"
       x="0"
       y="0" />
    <path
       id="path2895"
       style="font-weight:bold;font-size:50.8px;font-family:Bahnschrift;-inkscape-font-specification:'Bahnschrift Bold';letter-spacing:2.01612px;fill:#5fd38d;stroke-width:2;stroke-linecap:round;stroke-linejoin:round;paint-order:stroke fill markers"
       d="M 42.257369,11.733134 31.542261,40.977861 c -0.793706,2.166273 -0.838104,3.844727 -0.133325,5.035351 0.70478,1.190624 2.09083,1.785938 4.157885,1.785938 h 3.472657 6.356717 6.796485 l 9.433533,-25.747266 h -6.796485 l -7.034196,19.198828 h -6.356718 -1.141015 c -0.661458,0 -1.110639,-0.173633 -1.347205,-0.520898 -0.220043,-0.347265 -0.217975,-0.826824 0.0062,-1.438672 L 49.053853,11.733134 Z m 14.871593,4.043909 -1.008357,2.752575 h 6.796485 l 2.48977,-6.796484 h -2.48977 a 6.1642865,6.1642865 145.0597 0 0 -5.788128,4.043909 z"
       inkscape:path-effect="#path-effect4035"
       inkscape:original-d="M 42.257369,11.733134 31.542261,40.977861 c -0.793706,2.166273 -0.838104,3.844727 -0.133325,5.035351 0.70478,1.190624 2.09083,1.785938 4.157885,1.785938 h 3.472657 6.356717 6.796485 l 9.433533,-25.747266 h -6.796485 l -7.034196,19.198828 h -6.356718 -1.141015 c -0.661458,0 -1.110639,-0.173633 -1.347205,-0.520898 -0.220043,-0.347265 -0.217975,-0.826824 0.0062,-1.438672 L 49.053853,11.733134 Z m 16.353007,0 -2.489771,6.796484 h 6.796485 l 2.48977,-6.796484 z" />
    <path
       d="m 65.826995,58.266795 q -3.075781,0 -5.106759,-1.091406 -2.015259,-1.066602 -2.636742,-3.026172 v 0 l 6.099977,-4.191992 v 0 q 0.531899,0.917773 1.556475,1.438672 1.024576,0.520898 2.339225,0.520898 2.058789,0 3.86591,-1.141015 1.807123,-1.141016 2.579623,-3.249414 l 9.333628,-25.474414 h 6.796484 l -9.151863,24.97832 q -1.96306,5.357812 -6.061645,8.284765 -4.082868,2.951758 -9.614313,2.951758 z M 68.31048,48.171288 q -4.117578,0 -5.336284,-2.902149 -1.184814,-2.926953 0.76007,-8.235156 l 1.508649,-4.117578 q 1.96306,-5.357812 5.292701,-8.284766 3.363532,-2.951757 7.48111,-2.951757 2.058789,0 3.291095,1.240234 1.266199,1.21543 1.480966,3.472656 l -2.611194,5.705078 q 0.481677,-1.314648 0.371457,-2.232422 -0.110219,-0.917773 -0.805706,-1.389062 -0.661594,-0.496094 -1.877024,-0.496094 -1.909961,0 -3.458241,1.314649 -1.514384,1.289843 -2.377768,3.646289 l -1.49956,4.092773 q -0.845207,2.306836 -0.266911,3.571875 0.603101,1.265039 2.513062,1.265039 1.21543,0 2.231466,-0.471289 1.040841,-0.471289 1.814502,-1.364258 0.773661,-0.892969 1.237162,-2.158008 l -1.806649,5.878711 q -1.541446,2.108399 -3.630508,3.274219 -2.055168,1.141016 -4.312395,1.141016 z"
       id="path2899"
       style="font-weight:bold;font-size:50.8px;font-family:Bahnschrift;-inkscape-font-specification:'Bahnschrift Bold';letter-spacing:2.01612px;fill:#5fd38d;stroke-width:2;stroke-linecap:round;stroke-linejoin:round;paint-order:stroke fill markers"
       inkscape:original-d="m 65.826995,58.266795 q -3.075781,0 -5.106759,-1.091406 -2.015259,-1.066602 -2.636742,-3.026172 v 0 l 6.099977,-4.191992 v 0 q 0.531899,0.917773 1.556475,1.438672 1.024576,0.520898 2.339225,0.520898 2.058789,0 3.86591,-1.141015 1.807123,-1.141016 2.579623,-3.249414 l 9.333628,-25.474414 h 6.796484 l -9.151863,24.97832 q -1.96306,5.357812 -6.061645,8.284765 -4.082868,2.951758 -9.614313,2.951758 z M 68.31048,48.171288 q -4.117578,0 -5.336284,-2.902149 -1.184814,-2.926953 0.76007,-8.235156 l 1.508649,-4.117578 q 1.96306,-5.357812 5.292701,-8.284766 3.363532,-2.951757 7.48111,-2.951757 2.058789,0 3.291095,1.240234 1.266199,1.21543 1.480966,3.472656 l -2.611194,5.705078 q 0.481677,-1.314648 0.371457,-2.232422 -0.110219,-0.917773 -0.805706,-1.389062 -0.661594,-0.496094 -1.877024,-0.496094 -1.909961,0 -3.458241,1.314649 -1.514384,1.289843 -2.377768,3.646289 l -1.49956,4.092773 q -0.845207,2.306836 -0.266911,3.571875 0.603101,1.265039 2.513062,1.265039 1.21543,0 2.231466,-0.471289 1.040841,-0.471289 1.814502,-1.364258 0.773661,-0.892969 1.237162,-2.158008 l -1.806649,5.878711 q -1.541446,2.108399 -3.630508,3.274219 -2.055168,1.141016 -4.312395,1.141016 z"
       inkscape:path-effect="#path-effect2968" />
    <path
       style="font-weight:bold;font-size:50.8px;font-family:Bahnschrift;-inkscape-font-specification:'Bahnschrift Bold';letter-spacing:2.01612px;fill:#5fd38d;stroke-width:2;stroke-linecap:round;stroke-linejoin:round;paint-order:stroke fill markers"
       d="M 104.94144,47.799217 110.3853,32.94121 q 0.82703,-2.257227 0.15614,-3.472657 -0.63699,-1.240234 -2.69578,-1.240234 -1.88516,0 -3.31775,1.066602 -1.3987,1.041796 -2.09849,2.951757 l 1.56939,-5.705078 q 1.97052,-2.33164 4.12073,-3.596679 2.17503,-1.265039 4.53147,-1.265039 4.14239,0 5.31811,2.951757 1.18482,2.926954 -0.77825,8.284766 l -5.45294,14.882812 z"
       id="path4046" />
    <path
       style="font-weight:bold;font-size:50.8px;font-family:Bahnschrift;-inkscape-font-specification:'Bahnschrift Bold';letter-spacing:2.01612px;fill:#5fd38d;stroke-width:2;stroke-linecap:round;stroke-linejoin:round;paint-order:stroke fill markers"
       d="m 89.934608,47.799217 9.433598,-25.747265 h 6.796484 l -9.433602,25.747265 z"
       id="path4044" />
    <path
       style="font-weight:bold;font-size:50.8px;font-family:Bahnschrift;-inkscape-font-specification:'Bahnschrift Bold';letter-spacing:2.01612px;fill:#5fd38d;stroke-width:2;stroke-linecap:round;stroke-linejoin:round;paint-order:stroke fill markers"
       d="m 119.94828,47.799217 5.44386,-14.858007 q 0.82703,-2.257227 0.18094,-3.472657 -0.61219,-1.240234 -2.59656,-1.240234 -1.95957,0 -3.4624,1.190625 -1.46895,1.16582 -2.25963,3.323828 l 0.91614,-5.953125 q 2.11517,-2.455664 4.55641,-3.770312 2.45034,-1.339453 4.80678,-1.339453 4.192,0 5.39253,2.951757 1.23442,2.926954 -0.72865,8.284766 l -5.45294,14.882812 z"
       id="path4040" />
    <path
       d="m 149.62162,47.27005 5.98006,-16.321484 q 0.65436,-1.785937 -0.18182,-2.75332 -0.83619,-0.967383 -3.019,-0.967383 -1.43867,0 -3.02522,0.471289 -1.57746,0.446484 -2.98694,1.314648 l -2.69907,-4.142382 q 2.18316,-1.761133 5.06768,-2.728516 2.89361,-0.992187 5.96939,-0.992187 5.08496,0 6.94517,2.505273 1.86021,2.505273 0.18798,7.069336 l -6.06186,16.544726 z m -7.30488,0.372071 q -4.11758,0 -5.45839,-1.959571 -1.34082,-1.95957 0.14056,-6.002734 1.40868,-3.844727 4.38142,-5.729883 3.00663,-1.909961 7.59549,-1.909961 h 6.44922 l -1.55217,5.18418 h -6.77168 q -1.53789,0 -2.53405,0.620117 -0.98706,0.595313 -1.44147,1.835547 -0.4635,1.265039 0.27667,1.885156 0.77408,0.595313 2.70884,0.595313 2.70372,0 4.27037,-0.620118 1.56666,-0.620117 2.04834,-1.934765 l -0.85143,3.745508 q -0.68504,1.463476 -2.2053,2.430859 -1.51117,0.942578 -3.39537,1.413867 -1.85031,0.446485 -3.66105,0.446485 z"
       id="path2903"
       style="font-weight:bold;font-size:50.8px;font-family:Bahnschrift;-inkscape-font-specification:'Bahnschrift Bold';letter-spacing:2.01612px;fill:#5fd38d;stroke-width:2;stroke-linecap:round;stroke-linejoin:round;paint-order:stroke fill markers" />
    <path
       id="rect3282"
       style="opacity:1;fill:#5fd38d;fill-opacity:1;stroke:none;stroke-width:40.4628;stroke-linecap:round;stroke-linejoin:round;stroke-dasharray:none;stroke-dashoffset:0;stroke-opacity:1;paint-order:stroke fill markers"
       d="M 62.91709 11.733134 L 62.91709 18.529618 L 163.53472 18.529618 L 166.70714 18.529618 L 169.19742 11.733134 L 163.53472 11.733134 L 62.91709 11.733134 z " />
    <path
       style="fill:none;stroke:#000000;stroke-width:0.264583px;stroke-linecap:butt;stroke-linejoin:miter;stroke-opacity:1"
       d="M 163.53467,18.529617 H 182.9918"
       id="path3292"
       inkscape:path-effect="#path-effect3296"
       inkscape:original-d="M 163.53467,18.529617 H 182.9918" />
    <path
       d="m 65.826995,58.266795 q -3.075781,0 -5.106759,-1.091406 -2.015259,-1.066602 -2.636742,-3.026172 v 0 l 6.099977,-4.191992 v 0 q 0.531899,0.917773 1.556475,1.438672 1.024576,0.520898 2.339225,0.520898 2.058789,0 3.86591,-1.141015 1.807123,-1.141016 2.579623,-3.249414 l 9.333628,-25.474414 h 6.796484 l -9.151863,24.97832 q -1.96306,5.357812 -6.061645,8.284765 -4.082868,2.951758 -9.614313,2.951758 z M 68.31048,48.171288 q -4.117578,0 -5.336284,-2.902149 -1.184814,-2.926953 0.76007,-8.235156 l 1.508649,-4.117578 q 1.96306,-5.357812 5.292701,-8.284766 3.363532,-2.951757 7.48111,-2.951757 2.058789,0 3.291095,1.240234 1.266199,1.21543 1.480966,3.472656 l -2.611194,5.705078 q 0.481677,-1.314648 0.371457,-2.232422 -0.110219,-0.917773 -0.805706,-1.389062 -0.661594,-0.496094 -1.877024,-0.496094 -1.909961,0 -3.458241,1.314649 -1.514384,1.289843 -2.377768,3.646289 l -1.49956,4.092773 q -0.845207,2.306836 -0.266911,3.571875 0.603101,1.265039 2.513062,1.265039 1.21543,0 2.231466,-0.471289 1.040841,-0.471289 1.814502,-1.364258 0.773661,-0.892969 1.237162,-2.158008 l -1.806649,5.878711 q -1.541446,2.108399 -3.630508,3.274219 -2.055168,1.141016 -4.312395,1.141016 z"
       id="path4065"
       style="font-weight:bold;font-size:50.8px;font-family:Bahnschrift;-inkscape-font-specification:'Bahnschrift Bold';letter-spacing:2.01612px;fill:#5fd38d;stroke-width:2;stroke-linecap:round;stroke-linejoin:round;paint-order:stroke fill markers"
       inkscape:original-d="m 65.826995,58.266795 q -3.075781,0 -5.106759,-1.091406 -2.015259,-1.066602 -2.636742,-3.026172 v 0 l 6.099977,-4.191992 v 0 q 0.531899,0.917773 1.556475,1.438672 1.024576,0.520898 2.339225,0.520898 2.058789,0 3.86591,-1.141015 1.807123,-1.141016 2.579623,-3.249414 l 9.333628,-25.474414 h 6.796484 l -9.151863,24.97832 q -1.96306,5.357812 -6.061645,8.284765 -4.082868,2.951758 -9.614313,2.951758 z M 68.31048,48.171288 q -4.117578,0 -5.336284,-2.902149 -1.184814,-2.926953 0.76007,-8.235156 l 1.508649,-4.117578 q 1.96306,-5.357812 5.292701,-8.284766 3.363532,-2.951757 7.48111,-2.951757 2.058789,0 3.291095,1.240234 1.266199,1.21543 1.480966,3.472656 l -2.611194,5.705078 q 0.481677,-1.314648 0.371457,-2.232422 -0.110219,-0.917773 -0.805706,-1.389062 -0.661594,-0.496094 -1.877024,-0.496094 -1.909961,0 -3.458241,1.314649 -1.514384,1.289843 -2.377768,3.646289 l -1.49956,4.092773 q -0.845207,2.306836 -0.266911,3.571875 0.603101,1.265039 2.513062,1.265039 1.21543,0 2.231466,-0.471289 1.040841,-0.471289 1.814502,-1.364258 0.773661,-0.892969 1.237162,-2.158008 l -1.806649,5.878711 q -1.541446,2.108399 -3.630508,3.274219 -2.055168,1.141016 -4.312395,1.141016 z"
       inkscape:path-effect="#path-effect4069" />
  </g>
</svg>
