<?xml version="1.0" encoding="UTF-8" standalone="no"?>
<!-- Created with Inkscape (http://www.inkscape.org/) -->

<svg
   width="100mm"
   height="100mm"
   viewBox="0 0 100 100"
   version="1.1"
   id="svg5"
   xmlns="http://www.w3.org/2000/svg"
   xmlns:svg="http://www.w3.org/2000/svg">
  <defs
     id="defs2" />
  <path
     id="path3898"
     style="fill:#000000;stroke-width:0.268197;stroke-linecap:round;stroke-linejoin:round"
     d="M 84.472691,1.0079033 99.052506,15.620925 a 3.4474173,3.4474173 90.000002 0 1 -10e-7,4.869836 l -8.244516,8.263293 a 3.4317671,3.4317671 2.3798349e-6 0 1 -4.858769,0 L 71.369407,14.141034 a 3.4474178,3.4474178 89.999999 0 1 0,-4.8698359 l 8.244516,-8.2632947 a 3.4317667,3.4317667 -180 0 1 4.858768,-1e-7 z M 7.8460865,72.810492 0.16873745,95.9287 a 3.3109408,3.3109408 0 0 0 4.18995605,4.18428 L 27.401641,92.425959 a 4.0943328,4.0943328 0 0 0 1.602773,-6.775745 L 14.602659,71.215561 A 4.0777182,4.0777182 0 0 0 7.8460865,72.810492 Z M 65.035047,22.871059 77.239031,35.102839 a 3.4474174,3.4474174 0 0 1 10e-7,4.869836 L 40.255601,77.04034 a 3.4317668,3.4317668 0 0 1 -4.858768,0 L 23.192848,64.808559 a 3.4474176,3.4474176 0 0 1 0,-4.869836 l 36.98343,-37.067664 a 3.431767,3.431767 0 0 1 4.858769,0 z" />
</svg>
