<?xml version="1.0" encoding="UTF-8" standalone="no"?>
<!-- Created with Inkscape (http://www.inkscape.org/) -->

<svg
   width="210mm"
   height="297mm"
   viewBox="0 0 210 297"
   version="1.1"
   id="svg5"
   inkscape:version="1.1 (c68e22c387, 2021-05-23)"
   sodipodi:docname="playercount.svg"
   xmlns:inkscape="http://www.inkscape.org/namespaces/inkscape"
   xmlns:sodipodi="http://sodipodi.sourceforge.net/DTD/sodipodi-0.dtd"
   xmlns="http://www.w3.org/2000/svg"
   xmlns:svg="http://www.w3.org/2000/svg">
  <sodipodi:namedview
     id="namedview7"
     pagecolor="#ffffff"
     bordercolor="#666666"
     borderopacity="1.0"
     inkscape:pageshadow="2"
     inkscape:pageopacity="0.0"
     inkscape:pagecheckerboard="0"
     inkscape:document-units="mm"
     showgrid="false"
     inkscape:zoom="0.5"
     inkscape:cx="-166"
     inkscape:cy="333"
     inkscape:window-width="1920"
     inkscape:window-height="1017"
     inkscape:window-x="-8"
     inkscape:window-y="-8"
     inkscape:window-maximized="1"
     inkscape:current-layer="layer1" />
  <defs
     id="defs2" />
  <g
     inkscape:label="Ebene 1"
     inkscape:groupmode="layer"
     id="layer1">
    <path
       id="path5591"
       style="fill:#000000;fill-opacity:1;stroke:none;stroke-width:10.0958;stroke-linecap:round;stroke-linejoin:round;stroke-miterlimit:4;stroke-dasharray:none;stroke-opacity:1"
       d="m 29.043068,5.3426334 c -3.59488,0.00575 -7.113552,2.0013979 -8.940062,5.1009676 -1.215302,1.973183 -1.736293,4.350601 -1.47152,6.652146 0.239707,2.17886 1.187046,4.274439 2.660977,5.896719 2.49775,2.806437 6.567757,4.128553 10.22697,3.221303 3.118491,-0.724289 5.857932,-2.924035 7.19678,-5.837909 1.484679,-3.115518 1.280177,-6.957056 -0.523601,-9.898792 -1.689498,-2.8405355 -4.768301,-4.8080046 -8.068259,-5.0880991 -0.3593,-0.034214 -0.720392,-0.048984 -1.081285,-0.046339 z m 9.547604,22.8392246 c -1.655056,1.285844 -3.560381,2.249351 -5.59747,2.779163 -4.56409,1.246966 -9.594493,0.08916 -13.320405,-2.770294 -0.01982,0.02917 -0.03998,0.05824 -0.05947,0.08765 -1.677607,2.492429 -2.406887,5.477756 -2.868907,8.408435 -0.609202,4.106765 -0.677824,8.269099 -0.717357,12.413104 0.02446,0.278084 -0.04928,0.749336 0.304159,0.845175 1.738421,0.08401 3.481487,0.0349 5.221837,0.05321 6.790836,0.0029 13.581754,0.0018 20.372415,0.001 0.232581,-0.148508 0.366771,-0.341759 0.294247,-0.626054 -0.006,-4.856183 -0.06673,-9.753768 -1.022559,-14.532821 -0.485127,-2.331325 -1.231021,-4.697306 -2.606485,-6.658615 z M 13.016245,5.1968067e-4 C 9.4213661,0.00624478 5.9026622,2.001732 4.0761525,5.1013017 2.8608517,7.0744856 2.3396232,9.452112 2.6043969,11.753656 c 0.2397054,2.17886 1.1873333,4.274114 2.6612637,5.896395 2.26488,2.544786 5.8222854,3.868811 9.1941684,3.417215 -0.584236,-1.620433 -0.903086,-3.332497 -0.808658,-5.059567 -0.08451,-1.744688 0.155121,-3.492496 0.77005,-5.131041 1.07674,-3.1982522 3.28558,-5.9646772 6.074318,-7.8549018 C 18.778981,1.3468176 16.49677,0.25009901 14.097237,0.04643037 13.737938,0.01221082 13.377138,-0.0021246 13.016245,5.1968067e-4 Z M 3.6457384,22.848392 c -0.019822,0.02917 -0.039985,0.05824 -0.059476,0.08765 C 1.908657,25.428467 1.1793775,28.413799 0.71735691,31.344478 0.10815487,35.451243 0.03953297,39.613577 0,43.757581 c 0.02446612,0.278084 -0.04927601,0.749337 0.30415933,0.845176 1.73841997,0.08401 3.48148727,0.0349 5.22183647,0.05321 1.8667017,8.07e-4 3.7333725,2.37e-4 5.6000792,5.23e-4 0.07644,-2.922808 0.257591,-5.842952 0.681359,-8.736075 0.54837,-3.451712 1.47055,-6.968782 3.358796,-9.936535 -4.050187,0.551221 -8.2789629,-0.647782 -11.5204916,-3.135492 z" />
  </g>
</svg>
