<?xml version="1.0" encoding="UTF-8" standalone="no"?>
<svg
   id="visual"
   viewBox="0 0 540 960"
   width="540"
   height="960"
   version="1.1"
   sodipodi:docname="wave-haikei.svg"
   inkscape:version="1.1 (c68e22c387, 2021-05-23)"
   xmlns:inkscape="http://www.inkscape.org/namespaces/inkscape"
   xmlns:sodipodi="http://sodipodi.sourceforge.net/DTD/sodipodi-0.dtd"
   xmlns:xlink="http://www.w3.org/1999/xlink"
   xmlns="http://www.w3.org/2000/svg"
   xmlns:svg="http://www.w3.org/2000/svg">
  <defs
     id="defs9">
    <linearGradient
       inkscape:collect="always"
       id="linearGradient860">
      <stop
         style="stop-color:#4bedf3;stop-opacity:1;"
         offset="0"
         id="stop856" />
      <stop
         style="stop-color:#4ba2f3;stop-opacity:1"
         offset="1"
         id="stop858" />
    </linearGradient>
    <linearGradient
       inkscape:collect="always"
       xlink:href="#linearGradient860"
       id="linearGradient862"
       x1="0"
       y1="404"
       x2="4.4755244"
       y2="966.71326"
       gradientUnits="userSpaceOnUse" />
  </defs>
  <sodipodi:namedview
     id="namedview7"
     pagecolor="#ffffff"
     bordercolor="#666666"
     borderopacity="1.0"
     inkscape:pageshadow="2"
     inkscape:pageopacity="0.0"
     inkscape:pagecheckerboard="0"
     showgrid="false"
     inkscape:zoom="0.89375"
     inkscape:cx="269.65035"
     inkscape:cy="570.06993"
     inkscape:window-width="1920"
     inkscape:window-height="1017"
     inkscape:window-x="-8"
     inkscape:window-y="-8"
     inkscape:window-maximized="1"
     inkscape:current-layer="visual" />
  <rect
     x="4.4755244"
     y="6.7132869"
     width="540"
     height="960"
     fill="#2d2d2d"
     id="rect2" />
  <path
     d="M0 404L22.5 420.3C45 436.7 90 469.3 135 492.5C180 515.7 225 529.3 270 511.7C315 494 360 445 405 440.2C450 435.3 495 474.7 517.5 494.3L540 514L540 961L517.5 961C495 961 450 961 405 961C360 961 315 961 270 961C225 961 180 961 135 961C90 961 45 961 22.5 961L0 961Z"
     fill="#4BEDF3"
     stroke-linecap="round"
     stroke-linejoin="miter"
     id="path4"
     style="fill-opacity:1;fill:url(#linearGradient862)" />
</svg>
